# xmcd
#
# Track frame offsets: 
#        150
#        18750
#        35850
#        54450
#        66000
#        75600
#        86775
#        99375
#        114900
#        129750
#        142425
#        155025
#        164175
#        184200
#        200475
#        217500
#        227250
#        239325
#        255300
#        271800
#
# Disc length: 3785 seconds
#
# Revision: 0
# Processed by: cddbd v1.5.2PL0 Copyright (c) Steve Scherf et al.
# Submitted via: ExactAudioCopy v1.1
#
DISCID=0e0ec714
DTITLE=Greenhorns - Mirek Hoffmann 80
DYEAR=2015
DGENRE=Country
TTITLE0=Proklatej vuz
TTITLE1=Posledni hrana
TTITLE2=Oranzovy expres
TTITLE3=Posledni den
TTITLE4=Sest dni na silnici
TTITLE5=Nevahej
TTITLE6=Blues hvizdaveho vlaku
TTITLE7=Posledni sklenka
TTITLE8=Divnej smich
TTITLE9=Bila kytka
TTITLE10=Den se chyli
TTITLE11=Jizni vlak
TTITLE12=Cekani
TTITLE13=Netouzim po lustrech z kristalu
TTITLE14=Tata muj mi rikal
TTITLE15=Kralovstvi za kone
TTITLE16=Jo, to byl den
TTITLE17=Bylo ji sedmnact
TTITLE18=Sto mil od Detroit City
TTITLE19=Truck jmenem In The Mood
EXTD=
EXTT0=
EXTT1=
EXTT2=
EXTT3=
EXTT4=
EXTT5=
EXTT6=
EXTT7=
EXTT8=
EXTT9=
EXTT10=
EXTT11=
EXTT12=
EXTT13=
EXTT14=
EXTT15=
EXTT16=
EXTT17=
EXTT18=
EXTT19=
PLAYORDER=
